<svg width="900" height="1600" viewBox="0 0 900 1600" fill="none" xmlns="http://www.w3.org/2000/svg">
  <rect width="900" height="1600" fill="#EDEBE8"/>
  <rect x="170" y="40" width="560" height="1520" rx="54" fill="#F6F3EF"/>
  <rect x="195" y="70" width="510" height="1460" rx="42" fill="#F7F4F0" stroke="#D9D4CF"/>

  <rect x="195" y="70" width="510" height="210" rx="42" fill="url(#hero)"/>
  <circle cx="620" cy="120" r="70" fill="#7AC8BD" fill-opacity="0.12"/>
  <circle cx="675" cy="185" r="46" fill="#7AC8BD" fill-opacity="0.08"/>
  <rect x="225" y="112" width="92" height="18" rx="9" fill="#DDE9E6"/>
  <text x="225" y="160" fill="#173136" font-family="Arial, sans-serif" font-size="28" font-weight="600">Good morning</text>
  <text x="225" y="205" fill="#0F2227" font-family="Arial, sans-serif" font-size="42" font-weight="700">Michael</text>
  <text x="225" y="240" fill="#173136" fill-opacity="0.7" font-family="Arial, sans-serif" font-size="20">Saturday, 4 April 2026</text>
  <rect x="530" y="154" width="140" height="52" rx="26" fill="#F2FBF8" fill-opacity="0.75"/>
  <text x="554" y="187" fill="#24535A" font-family="Arial, sans-serif" font-size="18" font-weight="600">Site Info</text>

  <text x="225" y="340" fill="#173136" font-family="Arial, sans-serif" font-size="24" font-weight="700">Quick Actions</text>
  <text x="225" y="368" fill="#66757B" font-family="Arial, sans-serif" font-size="16">Forms stay near the top, always easy to find</text>

  <!-- Quick action tiles -->
  <g>
    <rect x="225" y="392" width="220" height="116" rx="24" fill="#5FBAAE"/>
    <text x="252" y="432" fill="#F7FBFA" font-family="Arial, sans-serif" font-size="16" font-weight="700">Emergency Declaration</text>
    <text x="252" y="462" fill="#E7F7F4" font-family="Arial, sans-serif" font-size="14">Primary site entry form</text>
    <circle cx="405" cy="450" r="18" fill="#FFFFFF" fill-opacity="0.2"/>
    <text x="399" y="456" fill="#FFFFFF" font-family="Arial, sans-serif" font-size="20" font-weight="700">+</text>

    <rect x="460" y="392" width="220" height="116" rx="24" fill="#2D646D"/>
    <text x="487" y="432" fill="#F7FBFA" font-family="Arial, sans-serif" font-size="16" font-weight="700">Support Check-In</text>
    <text x="487" y="462" fill="#E7F7F4" font-family="Arial, sans-serif" font-size="14">Ask for medic or welfare support</text>
    <circle cx="640" cy="450" r="18" fill="#FFFFFF" fill-opacity="0.2"/>
    <text x="634" y="456" fill="#FFFFFF" font-family="Arial, sans-serif" font-size="20" font-weight="700">+</text>

    <rect x="225" y="524" width="220" height="102" rx="24" fill="#FFFFFF" stroke="#D9D4CF"/>
    <text x="252" y="560" fill="#244750" font-family="Arial, sans-serif" font-size="16" font-weight="700">Wellbeing Pulse</text>
    <text x="252" y="588" fill="#66757B" font-family="Arial, sans-serif" font-size="14">De-identified check-in</text>

    <rect x="460" y="524" width="220" height="102" rx="24" fill="#FFFFFF" stroke="#D9D4CF"/>
    <text x="487" y="560" fill="#244750" font-family="Arial, sans-serif" font-size="16" font-weight="700">Fatigue Assessment</text>
    <text x="487" y="588" fill="#66757B" font-family="Arial, sans-serif" font-size="14">Self-assessment module</text>
  </g>

  <!-- Needs attention -->
  <text x="225" y="700" fill="#173136" font-family="Arial, sans-serif" font-size="24" font-weight="700">Needs Attention</text>
  <rect x="548" y="676" width="132" height="34" rx="17" fill="#FFE7C2"/>
  <text x="574" y="698" fill="#8B5A13" font-family="Arial, sans-serif" font-size="15" font-weight="700">2 active items</text>

  <rect x="225" y="726" width="455" height="122" rx="24" fill="#FFFFFF" stroke="#E3C27A"/>
  <rect x="247" y="748" width="94" height="28" rx="14" fill="#E9A43A"/>
  <text x="267" y="767" fill="#FFFFFF" font-family="Arial, sans-serif" font-size="13" font-weight="700">In Review</text>
  <text x="247" y="804" fill="#173136" font-family="Arial, sans-serif" font-size="19" font-weight="700">Support Check-In</text>
  <text x="247" y="832" fill="#66757B" font-family="Arial, sans-serif" font-size="15">A medic has opened your check-in and is reviewing it now.</text>
  <text x="596" y="804" fill="#2D646D" font-family="Arial, sans-serif" font-size="15" font-weight="700">Open</text>

  <rect x="225" y="864" width="455" height="112" rx="24" fill="#FFFFFF" stroke="#D9D4CF"/>
  <rect x="247" y="888" width="122" height="28" rx="14" fill="#D85A5A"/>
  <text x="267" y="907" fill="#FFFFFF" font-family="Arial, sans-serif" font-size="13" font-weight="700">Review Due</text>
  <text x="247" y="944" fill="#173136" font-family="Arial, sans-serif" font-size="19" font-weight="700">Medical Profile Update</text>
  <text x="247" y="970" fill="#66757B" font-family="Arial, sans-serif" font-size="15">It has been over 3 months since your last declaration.</text>

  <!-- Site and support -->
  <text x="225" y="1038" fill="#173136" font-family="Arial, sans-serif" font-size="24" font-weight="700">Current Site</text>
  <rect x="225" y="1064" width="455" height="188" rx="24" fill="#FFFFFF" stroke="#D9D4CF"/>
  <text x="247" y="1104" fill="#173136" font-family="Arial, sans-serif" font-size="20" font-weight="700">Pilbara Operations Village</text>
  <text x="247" y="1132" fill="#66757B" font-family="Arial, sans-serif" font-size="15">Tap numbers for immediate support</text>
  <line x1="247" y1="1156" x2="658" y2="1156" stroke="#ECE7E2"/>
  <text x="247" y="1192" fill="#66757B" font-family="Arial, sans-serif" font-size="14">Site Medic</text>
  <text x="247" y="1218" fill="#173136" font-family="Arial, sans-serif" font-size="17" font-weight="700">0400 123 456</text>
  <text x="560" y="1212" fill="#2D646D" font-family="Arial, sans-serif" font-size="15" font-weight="700">Call</text>
  <text x="247" y="1270" fill="#66757B" font-family="Arial, sans-serif" font-size="14">Employee Assistance Program</text>
  <text x="247" y="1296" fill="#173136" font-family="Arial, sans-serif" font-size="17" font-weight="700">1800 555 111</text>

  <!-- Recent activity -->
  <text x="225" y="1360" fill="#173136" font-family="Arial, sans-serif" font-size="24" font-weight="700">Recent Activity</text>
  <text x="580" y="1360" fill="#2D646D" font-family="Arial, sans-serif" font-size="15" font-weight="700">View all</text>
  <rect x="225" y="1388" width="455" height="104" rx="24" fill="#FFFFFF" stroke="#D9D4CF"/>
  <text x="247" y="1428" fill="#173136" font-family="Arial, sans-serif" font-size="17" font-weight="700">Wellbeing Pulse</text>
  <text x="247" y="1455" fill="#66757B" font-family="Arial, sans-serif" font-size="15">Submitted today at 08:42</text>
  <rect x="573" y="1412" width="85" height="28" rx="14" fill="#DDEEEA"/>
  <text x="592" y="1431" fill="#2D646D" font-family="Arial, sans-serif" font-size="13" font-weight="700">Saved</text>

  <defs>
    <linearGradient id="hero" x1="195" y1="70" x2="705" y2="280" gradientUnits="userSpaceOnUse">
      <stop stop-color="#D7E2DF"/>
      <stop offset="1" stop-color="#C8D6D4"/>
    </linearGradient>
  </defs>
</svg>
